<mxfile host="app.diagrams.net" modified="2023-05-17T09:40:14.671Z" agent="Mozilla/5.0 (Windows NT 10.0; Win64; x64) AppleWebKit/537.36 (KHTML, like Gecko) Chrome/113.0.0.0 Safari/537.36" etag="Z5Lvo9Sf8aiAkESLRwwq" version="21.3.2" type="device">
  <diagram name="Страница 1" id="9o0j_B5MlAi1ykitkiST">
    <mxGraphModel dx="1621" dy="1020" grid="0" gridSize="10" guides="1" tooltips="1" connect="1" arrows="1" fold="1" page="0" pageScale="1" pageWidth="827" pageHeight="1169" math="0" shadow="0">
      <root>
        <mxCell id="0" />
        <mxCell id="1" parent="0" />
        <mxCell id="OZne5NdtYYrR48Qp9VPB-1" value="Пользователь" style="shape=umlActor;verticalLabelPosition=bottom;verticalAlign=top;html=1;outlineConnect=0;" parent="1" vertex="1">
          <mxGeometry x="210" y="160" width="30" height="60" as="geometry" />
        </mxCell>
        <mxCell id="OZne5NdtYYrR48Qp9VPB-3" value="Просмотр расписания" style="rounded=1;whiteSpace=wrap;html=1;" parent="1" vertex="1">
          <mxGeometry y="70" width="120" height="40" as="geometry" />
        </mxCell>
        <mxCell id="OZne5NdtYYrR48Qp9VPB-4" value="Просмотр списка команд" style="rounded=1;whiteSpace=wrap;html=1;" parent="1" vertex="1">
          <mxGeometry y="130" width="120" height="40" as="geometry" />
        </mxCell>
        <mxCell id="OZne5NdtYYrR48Qp9VPB-5" value="Просмотр спортивных турниров" style="rounded=1;whiteSpace=wrap;html=1;" parent="1" vertex="1">
          <mxGeometry x="-10" y="240" width="130" height="40" as="geometry" />
        </mxCell>
        <mxCell id="OZne5NdtYYrR48Qp9VPB-6" value="Просмотр творческих мероприятий" style="rounded=1;whiteSpace=wrap;html=1;" parent="1" vertex="1">
          <mxGeometry x="-10" y="370" width="130" height="40" as="geometry" />
        </mxCell>
        <mxCell id="OZne5NdtYYrR48Qp9VPB-16" value="Организатор" style="shape=umlActor;verticalLabelPosition=bottom;verticalAlign=top;html=1;outlineConnect=0;" parent="1" vertex="1">
          <mxGeometry x="460" y="160" width="30" height="60" as="geometry" />
        </mxCell>
        <mxCell id="OZne5NdtYYrR48Qp9VPB-17" value="Расписание" style="rounded=1;whiteSpace=wrap;html=1;" parent="1" vertex="1">
          <mxGeometry x="640" y="-20" width="120" height="40" as="geometry" />
        </mxCell>
        <mxCell id="OZne5NdtYYrR48Qp9VPB-18" value="Команды" style="rounded=1;whiteSpace=wrap;html=1;" parent="1" vertex="1">
          <mxGeometry x="640" y="80" width="120" height="40" as="geometry" />
        </mxCell>
        <mxCell id="OZne5NdtYYrR48Qp9VPB-19" value="Спорт" style="rounded=1;whiteSpace=wrap;html=1;" parent="1" vertex="1">
          <mxGeometry x="640" y="240" width="120" height="40" as="geometry" />
        </mxCell>
        <mxCell id="OZne5NdtYYrR48Qp9VPB-20" value="Творчество" style="rounded=1;whiteSpace=wrap;html=1;" parent="1" vertex="1">
          <mxGeometry x="450" y="-20" width="120" height="40" as="geometry" />
        </mxCell>
        <mxCell id="OZne5NdtYYrR48Qp9VPB-21" value="" style="endArrow=classic;html=1;rounded=0;" parent="1" edge="1">
          <mxGeometry width="50" height="50" relative="1" as="geometry">
            <mxPoint x="500" y="190" as="sourcePoint" />
            <mxPoint x="630" as="targetPoint" />
          </mxGeometry>
        </mxCell>
        <mxCell id="OZne5NdtYYrR48Qp9VPB-22" value="" style="endArrow=classic;html=1;rounded=0;" parent="1" edge="1">
          <mxGeometry width="50" height="50" relative="1" as="geometry">
            <mxPoint x="500" y="190" as="sourcePoint" />
            <mxPoint x="630" y="260" as="targetPoint" />
          </mxGeometry>
        </mxCell>
        <mxCell id="OZne5NdtYYrR48Qp9VPB-23" value="" style="endArrow=classic;html=1;rounded=0;" parent="1" edge="1">
          <mxGeometry width="50" height="50" relative="1" as="geometry">
            <mxPoint x="500" y="190" as="sourcePoint" />
            <mxPoint x="630" y="100" as="targetPoint" />
          </mxGeometry>
        </mxCell>
        <mxCell id="OZne5NdtYYrR48Qp9VPB-25" value="Регистрация" style="rounded=1;whiteSpace=wrap;html=1;" parent="1" vertex="1">
          <mxGeometry x="165" y="310" width="120" height="40" as="geometry" />
        </mxCell>
        <mxCell id="OZne5NdtYYrR48Qp9VPB-26" value="Авторизация" style="rounded=1;whiteSpace=wrap;html=1;" parent="1" vertex="1">
          <mxGeometry x="500" y="310" width="120" height="40" as="geometry" />
        </mxCell>
        <mxCell id="OZne5NdtYYrR48Qp9VPB-30" value="Удалить &lt;br&gt;расписание" style="rounded=1;whiteSpace=wrap;html=1;" parent="1" vertex="1">
          <mxGeometry x="880" y="-80" width="120" height="40" as="geometry" />
        </mxCell>
        <mxCell id="OZne5NdtYYrR48Qp9VPB-31" value="Добавить&lt;br&gt;расписание" style="rounded=1;whiteSpace=wrap;html=1;" parent="1" vertex="1">
          <mxGeometry x="880" y="-20" width="120" height="40" as="geometry" />
        </mxCell>
        <mxCell id="OZne5NdtYYrR48Qp9VPB-34" value="Добавить мероприятие" style="rounded=1;whiteSpace=wrap;html=1;" parent="1" vertex="1">
          <mxGeometry x="1120" y="-20" width="120" height="40" as="geometry" />
        </mxCell>
        <mxCell id="OZne5NdtYYrR48Qp9VPB-35" value="Удалить&lt;br&gt;мероприятие" style="rounded=1;whiteSpace=wrap;html=1;" parent="1" vertex="1">
          <mxGeometry x="1120" y="40" width="120" height="40" as="geometry" />
        </mxCell>
        <mxCell id="OZne5NdtYYrR48Qp9VPB-37" value="Удалить&lt;br&gt;команду" style="rounded=1;whiteSpace=wrap;html=1;" parent="1" vertex="1">
          <mxGeometry x="880" y="80" width="120" height="40" as="geometry" />
        </mxCell>
        <mxCell id="OZne5NdtYYrR48Qp9VPB-39" value="Добавить&lt;br&gt;команду" style="rounded=1;whiteSpace=wrap;html=1;" parent="1" vertex="1">
          <mxGeometry x="880" y="140" width="120" height="40" as="geometry" />
        </mxCell>
        <mxCell id="OZne5NdtYYrR48Qp9VPB-42" value="Изменить состав команды" style="rounded=1;whiteSpace=wrap;html=1;" parent="1" vertex="1">
          <mxGeometry x="880" y="200" width="120" height="40" as="geometry" />
        </mxCell>
        <mxCell id="OZne5NdtYYrR48Qp9VPB-43" value="Добавить турнир" style="rounded=1;whiteSpace=wrap;html=1;" parent="1" vertex="1">
          <mxGeometry x="880" y="280" width="120" height="40" as="geometry" />
        </mxCell>
        <mxCell id="OZne5NdtYYrR48Qp9VPB-45" value="Удалить турнир" style="rounded=1;whiteSpace=wrap;html=1;" parent="1" vertex="1">
          <mxGeometry x="880" y="340" width="120" height="40" as="geometry" />
        </mxCell>
        <mxCell id="OZne5NdtYYrR48Qp9VPB-48" value="Добавить игру" style="rounded=1;whiteSpace=wrap;html=1;" parent="1" vertex="1">
          <mxGeometry x="880" y="400" width="120" height="40" as="geometry" />
        </mxCell>
        <mxCell id="OZne5NdtYYrR48Qp9VPB-50" value="Удалить игру" style="rounded=1;whiteSpace=wrap;html=1;" parent="1" vertex="1">
          <mxGeometry x="880" y="460" width="120" height="40" as="geometry" />
        </mxCell>
        <mxCell id="OZne5NdtYYrR48Qp9VPB-52" value="Просмотр&lt;br&gt;состава" style="rounded=1;whiteSpace=wrap;html=1;" parent="1" vertex="1">
          <mxGeometry x="-200" y="70" width="120" height="40" as="geometry" />
        </mxCell>
        <mxCell id="OZne5NdtYYrR48Qp9VPB-54" value="Просмотр количества баллов" style="rounded=1;whiteSpace=wrap;html=1;" parent="1" vertex="1">
          <mxGeometry x="-200" y="130" width="120" height="40" as="geometry" />
        </mxCell>
        <mxCell id="OZne5NdtYYrR48Qp9VPB-57" value="Просмотр&lt;br&gt;турнирной сетки" style="rounded=1;whiteSpace=wrap;html=1;" parent="1" vertex="1">
          <mxGeometry x="-200" y="240" width="120" height="40" as="geometry" />
        </mxCell>
        <mxCell id="OZne5NdtYYrR48Qp9VPB-58" value="Просмотр таблицы лидеров" style="rounded=1;whiteSpace=wrap;html=1;" parent="1" vertex="1">
          <mxGeometry x="-200" y="300" width="120" height="40" as="geometry" />
        </mxCell>
        <mxCell id="OZne5NdtYYrR48Qp9VPB-60" value="Выход" style="rounded=1;whiteSpace=wrap;html=1;" parent="1" vertex="1">
          <mxGeometry x="340" y="310" width="120" height="40" as="geometry" />
        </mxCell>
        <mxCell id="OZne5NdtYYrR48Qp9VPB-61" value="" style="endArrow=classic;html=1;rounded=0;" parent="1" edge="1">
          <mxGeometry width="50" height="50" relative="1" as="geometry">
            <mxPoint x="480" y="250" as="sourcePoint" />
            <mxPoint x="560" y="300" as="targetPoint" />
          </mxGeometry>
        </mxCell>
        <mxCell id="OZne5NdtYYrR48Qp9VPB-62" value="" style="endArrow=classic;html=1;rounded=0;" parent="1" edge="1">
          <mxGeometry width="50" height="50" relative="1" as="geometry">
            <mxPoint x="224.7" y="250" as="sourcePoint" />
            <mxPoint x="224.7" y="300" as="targetPoint" />
          </mxGeometry>
        </mxCell>
        <mxCell id="OZne5NdtYYrR48Qp9VPB-63" value="" style="endArrow=classic;html=1;rounded=0;" parent="1" edge="1">
          <mxGeometry width="50" height="50" relative="1" as="geometry">
            <mxPoint x="480" y="250" as="sourcePoint" />
            <mxPoint x="400" y="300" as="targetPoint" />
          </mxGeometry>
        </mxCell>
        <mxCell id="OZne5NdtYYrR48Qp9VPB-64" value="Extends" style="endArrow=block;endSize=16;endFill=0;html=1;rounded=0;" parent="1" edge="1">
          <mxGeometry width="160" relative="1" as="geometry">
            <mxPoint x="450" y="190" as="sourcePoint" />
            <mxPoint x="250" y="190" as="targetPoint" />
          </mxGeometry>
        </mxCell>
        <mxCell id="OZne5NdtYYrR48Qp9VPB-65" value="Use" style="endArrow=open;endSize=12;dashed=1;html=1;rounded=0;" parent="1" edge="1">
          <mxGeometry width="160" relative="1" as="geometry">
            <mxPoint x="770" y="99.82" as="sourcePoint" />
            <mxPoint x="870" y="100" as="targetPoint" />
          </mxGeometry>
        </mxCell>
        <mxCell id="OZne5NdtYYrR48Qp9VPB-66" value="Use" style="endArrow=open;endSize=12;dashed=1;html=1;rounded=0;" parent="1" edge="1">
          <mxGeometry width="160" relative="1" as="geometry">
            <mxPoint x="770" y="100" as="sourcePoint" />
            <mxPoint x="870" y="160" as="targetPoint" />
          </mxGeometry>
        </mxCell>
        <mxCell id="OZne5NdtYYrR48Qp9VPB-67" value="Use" style="endArrow=open;endSize=12;dashed=1;html=1;rounded=0;" parent="1" edge="1">
          <mxGeometry width="160" relative="1" as="geometry">
            <mxPoint x="770" y="100" as="sourcePoint" />
            <mxPoint x="870" y="220" as="targetPoint" />
          </mxGeometry>
        </mxCell>
        <mxCell id="OZne5NdtYYrR48Qp9VPB-68" value="Use" style="endArrow=open;endSize=12;dashed=1;html=1;rounded=0;" parent="1" edge="1">
          <mxGeometry width="160" relative="1" as="geometry">
            <mxPoint x="770" y="-0.37000000000000455" as="sourcePoint" />
            <mxPoint x="870" y="-60" as="targetPoint" />
          </mxGeometry>
        </mxCell>
        <mxCell id="OZne5NdtYYrR48Qp9VPB-69" value="Use" style="endArrow=open;endSize=12;dashed=1;html=1;rounded=0;" parent="1" edge="1">
          <mxGeometry width="160" relative="1" as="geometry">
            <mxPoint x="770" as="sourcePoint" />
            <mxPoint x="870" as="targetPoint" />
          </mxGeometry>
        </mxCell>
        <mxCell id="OZne5NdtYYrR48Qp9VPB-70" value="Use" style="endArrow=open;endSize=12;dashed=1;html=1;rounded=0;" parent="1" edge="1">
          <mxGeometry width="160" relative="1" as="geometry">
            <mxPoint x="1010" as="sourcePoint" />
            <mxPoint x="1110" as="targetPoint" />
          </mxGeometry>
        </mxCell>
        <mxCell id="OZne5NdtYYrR48Qp9VPB-71" value="Use" style="endArrow=open;endSize=12;dashed=1;html=1;rounded=0;" parent="1" edge="1">
          <mxGeometry width="160" relative="1" as="geometry">
            <mxPoint x="1010" as="sourcePoint" />
            <mxPoint x="1110" y="60" as="targetPoint" />
          </mxGeometry>
        </mxCell>
        <mxCell id="OZne5NdtYYrR48Qp9VPB-72" value="Use" style="endArrow=open;endSize=12;dashed=1;html=1;rounded=0;" parent="1" edge="1">
          <mxGeometry width="160" relative="1" as="geometry">
            <mxPoint x="770" y="260" as="sourcePoint" />
            <mxPoint x="870" y="299.57" as="targetPoint" />
          </mxGeometry>
        </mxCell>
        <mxCell id="OZne5NdtYYrR48Qp9VPB-73" value="Use" style="endArrow=open;endSize=12;dashed=1;html=1;rounded=0;" parent="1" edge="1">
          <mxGeometry width="160" relative="1" as="geometry">
            <mxPoint x="770" y="260" as="sourcePoint" />
            <mxPoint x="870" y="360" as="targetPoint" />
          </mxGeometry>
        </mxCell>
        <mxCell id="OZne5NdtYYrR48Qp9VPB-74" value="Use" style="endArrow=open;endSize=12;dashed=1;html=1;rounded=0;" parent="1" edge="1">
          <mxGeometry width="160" relative="1" as="geometry">
            <mxPoint x="770" y="260" as="sourcePoint" />
            <mxPoint x="870" y="420" as="targetPoint" />
          </mxGeometry>
        </mxCell>
        <mxCell id="OZne5NdtYYrR48Qp9VPB-75" value="Use" style="endArrow=open;endSize=12;dashed=1;html=1;rounded=0;" parent="1" edge="1">
          <mxGeometry width="160" relative="1" as="geometry">
            <mxPoint x="770" y="260" as="sourcePoint" />
            <mxPoint x="870" y="480" as="targetPoint" />
          </mxGeometry>
        </mxCell>
        <mxCell id="OZne5NdtYYrR48Qp9VPB-78" value="" style="endArrow=classic;html=1;rounded=0;" parent="1" edge="1">
          <mxGeometry width="50" height="50" relative="1" as="geometry">
            <mxPoint x="200" y="190" as="sourcePoint" />
            <mxPoint x="130" y="90" as="targetPoint" />
          </mxGeometry>
        </mxCell>
        <mxCell id="OZne5NdtYYrR48Qp9VPB-79" value="" style="endArrow=classic;html=1;rounded=0;" parent="1" edge="1">
          <mxGeometry width="50" height="50" relative="1" as="geometry">
            <mxPoint x="200" y="190" as="sourcePoint" />
            <mxPoint x="130" y="150" as="targetPoint" />
          </mxGeometry>
        </mxCell>
        <mxCell id="OZne5NdtYYrR48Qp9VPB-80" value="Use" style="endArrow=open;endSize=12;dashed=1;html=1;rounded=0;" parent="1" edge="1">
          <mxGeometry width="160" relative="1" as="geometry">
            <mxPoint x="-10" y="150" as="sourcePoint" />
            <mxPoint x="-70" y="90" as="targetPoint" />
          </mxGeometry>
        </mxCell>
        <mxCell id="OZne5NdtYYrR48Qp9VPB-81" value="Use" style="endArrow=open;endSize=12;dashed=1;html=1;rounded=0;" parent="1" edge="1">
          <mxGeometry width="160" relative="1" as="geometry">
            <mxPoint x="-10" y="150" as="sourcePoint" />
            <mxPoint x="-70" y="150" as="targetPoint" />
          </mxGeometry>
        </mxCell>
        <mxCell id="OZne5NdtYYrR48Qp9VPB-82" value="" style="endArrow=classic;html=1;rounded=0;" parent="1" edge="1">
          <mxGeometry width="50" height="50" relative="1" as="geometry">
            <mxPoint x="200" y="190" as="sourcePoint" />
            <mxPoint x="130" y="260" as="targetPoint" />
          </mxGeometry>
        </mxCell>
        <mxCell id="OZne5NdtYYrR48Qp9VPB-83" value="" style="endArrow=classic;html=1;rounded=0;" parent="1" edge="1">
          <mxGeometry width="50" height="50" relative="1" as="geometry">
            <mxPoint x="200" y="190" as="sourcePoint" />
            <mxPoint x="130" y="390" as="targetPoint" />
          </mxGeometry>
        </mxCell>
        <mxCell id="OZne5NdtYYrR48Qp9VPB-84" value="Use" style="endArrow=open;endSize=12;dashed=1;html=1;rounded=0;" parent="1" edge="1">
          <mxGeometry width="160" relative="1" as="geometry">
            <mxPoint x="-20" y="260" as="sourcePoint" />
            <mxPoint x="-70" y="260" as="targetPoint" />
          </mxGeometry>
        </mxCell>
        <mxCell id="OZne5NdtYYrR48Qp9VPB-85" value="Use" style="endArrow=open;endSize=12;dashed=1;html=1;rounded=0;" parent="1" edge="1">
          <mxGeometry width="160" relative="1" as="geometry">
            <mxPoint x="-20" y="260" as="sourcePoint" />
            <mxPoint x="-70" y="320" as="targetPoint" />
          </mxGeometry>
        </mxCell>
        <mxCell id="OZne5NdtYYrR48Qp9VPB-86" value="Просмотр победителей" style="rounded=1;whiteSpace=wrap;html=1;" parent="1" vertex="1">
          <mxGeometry x="-200" y="370" width="120" height="40" as="geometry" />
        </mxCell>
        <mxCell id="OZne5NdtYYrR48Qp9VPB-87" value="Use" style="endArrow=open;endSize=12;dashed=1;html=1;rounded=0;" parent="1" edge="1">
          <mxGeometry width="160" relative="1" as="geometry">
            <mxPoint x="-20" y="389.47" as="sourcePoint" />
            <mxPoint x="-70" y="389.47" as="targetPoint" />
          </mxGeometry>
        </mxCell>
        <mxCell id="OZne5NdtYYrR48Qp9VPB-88" value="" style="endArrow=classic;html=1;rounded=0;" parent="1" edge="1">
          <mxGeometry width="50" height="50" relative="1" as="geometry">
            <mxPoint x="474.64" y="150" as="sourcePoint" />
            <mxPoint x="510" y="30" as="targetPoint" />
          </mxGeometry>
        </mxCell>
        <mxCell id="OZne5NdtYYrR48Qp9VPB-89" value="Добавить мероприятие" style="rounded=1;whiteSpace=wrap;html=1;" parent="1" vertex="1">
          <mxGeometry x="370" y="-120" width="120" height="40" as="geometry" />
        </mxCell>
        <mxCell id="OZne5NdtYYrR48Qp9VPB-90" value="Удалить мероприятие" style="rounded=1;whiteSpace=wrap;html=1;" parent="1" vertex="1">
          <mxGeometry x="510" y="-120" width="120" height="40" as="geometry" />
        </mxCell>
        <mxCell id="OZne5NdtYYrR48Qp9VPB-91" value="Добавить победителей мероприятия" style="rounded=1;whiteSpace=wrap;html=1;" parent="1" vertex="1">
          <mxGeometry x="650" y="-120" width="140" height="40" as="geometry" />
        </mxCell>
        <mxCell id="OZne5NdtYYrR48Qp9VPB-92" value="Use" style="endArrow=open;endSize=12;dashed=1;html=1;rounded=0;" parent="1" edge="1">
          <mxGeometry width="160" relative="1" as="geometry">
            <mxPoint x="510" y="-30" as="sourcePoint" />
            <mxPoint x="430" y="-70" as="targetPoint" />
          </mxGeometry>
        </mxCell>
        <mxCell id="OZne5NdtYYrR48Qp9VPB-93" value="Use" style="endArrow=open;endSize=12;dashed=1;html=1;rounded=0;" parent="1" edge="1">
          <mxGeometry width="160" relative="1" as="geometry">
            <mxPoint x="510" y="-30" as="sourcePoint" />
            <mxPoint x="570" y="-70" as="targetPoint" />
          </mxGeometry>
        </mxCell>
        <mxCell id="OZne5NdtYYrR48Qp9VPB-94" value="Use" style="endArrow=open;endSize=12;dashed=1;html=1;rounded=0;" parent="1" edge="1">
          <mxGeometry width="160" relative="1" as="geometry">
            <mxPoint x="510" y="-30" as="sourcePoint" />
            <mxPoint x="720" y="-70" as="targetPoint" />
          </mxGeometry>
        </mxCell>
        <mxCell id="OZne5NdtYYrR48Qp9VPB-95" value="Добавить баллы команде" style="rounded=1;whiteSpace=wrap;html=1;" parent="1" vertex="1">
          <mxGeometry x="300" y="-20" width="120" height="40" as="geometry" />
        </mxCell>
        <mxCell id="OZne5NdtYYrR48Qp9VPB-96" value="" style="endArrow=classic;html=1;rounded=0;" parent="1" edge="1">
          <mxGeometry width="50" height="50" relative="1" as="geometry">
            <mxPoint x="470" y="150" as="sourcePoint" />
            <mxPoint x="360" y="30" as="targetPoint" />
          </mxGeometry>
        </mxCell>
      </root>
    </mxGraphModel>
  </diagram>
</mxfile>
